<?xml version="1.0" standalone="no"?>
<!DOCTYPE svg PUBLIC "-//W3C//DTD SVG 20010904//EN"
 "http://www.w3.org/TR/2001/REC-SVG-20010904/DTD/svg10.dtd">
<svg version="1.0" xmlns="http://www.w3.org/2000/svg"
 width="64.000000pt" height="64.000000pt" viewBox="0 0 64.000000 64.000000"
 preserveAspectRatio="xMidYMid meet">

<g transform="translate(0.000000,64.000000) scale(0.100000,-0.100000)"
fill="#000000" stroke="none">
<path d="M260 631 c-98 -20 -182 -87 -227 -179 -37 -77 -38 -183 -1 -262 95
-205 358 -248 520 -85 83 83 107 240 55 348 -32 63 -100 131 -161 158 -49 21
-136 31 -186 20z m149 -182 c114 -26 178 -75 137 -104 -13 -10 -28 -8 -79 13
-48 20 -84 27 -162 30 -55 2 -119 -1 -143 -6 -34 -8 -46 -7 -57 5 -18 17 -19
39 -3 49 37 23 228 32 307 13z m-29 -109 c99 -22 147 -57 117 -87 -11 -11 -21
-10 -63 9 -43 20 -65 23 -176 23 -102 -1 -129 2 -133 14 -3 8 -1 19 4 24 25
25 170 34 251 17z m8 -105 c28 -9 58 -23 67 -32 14 -14 15 -18 2 -30 -13 -13
-19 -12 -48 4 -27 14 -57 18 -149 19 -106 0 -115 2 -115 19 0 12 10 22 25 26
46 13 166 9 218 -6z"/>
</g>
</svg>
